<?xml version="1.0" encoding="UTF-8"?>
<svg width="185px" height="45px" viewBox="0 0 185 45" version="1.1" xmlns="http://www.w3.org/2000/svg" xmlns:xlink="http://www.w3.org/1999/xlink">
    <title>C268290E-DE6C-4AED-A66F-BD4D035B7B28</title>
    <g id="Page-1" stroke="none" stroke-width="1" fill="none" fill-rule="evenodd">
        <g id="0.0_Homepage" transform="translate(-230.000000, -18.000000)">
            <g id="Group-8" transform="translate(230.000000, 18.000000)">
                <g id="Group" transform="translate(0.000000, -0.000000)">
                    <path d="M62.7158167,10.5763012 C69.1530956,10.5763012 74.3777803,15.5829227 74.3777803,21.7715688 C74.3777803,24.4148204 73.3520003,26.8094393 71.7345287,28.6755437 L74.0360801,30.6034666 L71.9831614,33.1224018 L69.4024077,30.9458461 C67.5050544,32.2515078 65.203503,32.9675158 62.7158167,32.9675158 C56.2785378,32.9675158 51.0545324,27.960215 51.0545324,21.7715688 C51.0545324,15.5829227 56.2785378,10.5763012 62.7158167,10.5763012 Z M175.763904,10.5450522 C179.091236,10.5450522 182.014369,11.3846973 184.160355,12.3180892 L182.356069,15.8634837 C180.428825,15.0544082 177.723076,14.4015774 175.670157,14.4015774 C173.431104,14.4015774 172.187261,15.3967878 172.187261,16.7649473 C172.187261,18.3199211 173.742234,18.9727519 177.038996,19.7193295 C181.765736,20.7763585 185,22.2695137 185,26.2809248 C185,30.5103991 181.610171,32.9980854 176.509802,32.9980854 C172.778273,32.9980854 170.88092,32.6563852 167.398702,30.9145972 L169.015495,27.4629495 C171.907379,28.8623579 173.929049,29.1422396 176.665368,29.1422396 C179.059987,29.1422396 180.490644,28.2713456 180.490644,26.653874 C180.490644,25.1613981 179.029417,24.5085672 175.825723,23.7619896 C171.316367,22.7362096 167.677905,21.4611175 167.677905,17.1378965 C167.677905,13.2820506 170.756603,10.5450522 175.763904,10.5450522 Z M82.2470073,10.7938209 L82.2470073,22.7669151 C82.2470073,26.9033219 84.0818628,28.8624938 87.5647594,28.8624938 C91.110154,28.8624938 92.9450094,26.872073 92.9450094,22.7669151 L92.9450094,10.7938209 L97.2988001,10.7938209 L97.2988001,23.9176908 C97.2988001,28.9555612 93.9402198,32.9669724 87.5647594,32.9669724 C81.2212273,32.9669724 77.8932166,28.9868102 77.8932166,23.9176908 L77.8932166,10.7938209 L82.2470073,10.7938209 Z M111.511831,10.7940247 L121.99177,32.7185434 L117.2956,32.7185434 L115.305858,28.2710059 L105.50932,28.2710059 L103.550148,32.7185434 L98.854657,32.7185434 L109.303347,10.7940247 L111.511831,10.7940247 Z M134.307923,10.7940247 C140.713953,10.7940247 142.890509,14.588052 142.890509,18.6932099 C142.890509,22.4559883 141.335535,24.9436746 138.443651,26.1875177 L143.544019,32.7185434 L138.226267,32.7185434 L133.996792,27.0584117 C133.810318,27.0818484 133.588688,27.0877076 133.371453,27.0891724 L129.083238,27.0896606 L129.083238,32.7185434 L124.63638,32.7185434 L124.63638,10.7940247 L134.307923,10.7940247 Z M150.821826,10.7938209 L150.821826,21.3362577 L160.430871,10.7938209 L165.811121,10.7938209 L156.232646,21.6161394 L166.091003,32.7183396 L160.244736,32.7183396 L153.340761,25.0677871 L150.821826,27.7422877 L150.821826,32.7183396 L146.499284,32.7183396 L146.499284,10.7938209 L150.821826,10.7938209 Z M62.7158167,14.7432776 C58.7669034,14.7432776 55.594458,17.915723 55.594458,21.7715688 C55.594458,25.6593429 58.7669034,28.7998601 62.7158167,28.7998601 C63.8978413,28.7998601 65.048617,28.5199784 65.9813295,27.9914639 L64.5506721,26.7788697 L66.6035908,24.2592551 L68.2828809,25.6905918 C69.2155934,24.6328836 69.8066058,23.2647241 69.8066058,21.7715688 C69.8066058,17.915723 66.6341604,14.7432776 62.7158167,14.7432776 Z M110.391625,17.324371 L107.095542,24.5707254 L113.719636,24.5707254 L110.391625,17.324371 Z M133.592594,14.6505498 L129.083238,14.6505498 L129.083238,23.4199497 L133.001582,23.4199497 C136.546977,23.4199497 138.226267,21.6163432 138.226267,19.0349101 C138.226267,16.765287 137.044242,14.6505498 133.592594,14.6505498 Z" id="Combined-Shape" fill="#FFFFFF"></path>
                    <path d="M17.4036142,0.757616643 C19.1528748,-0.252538881 21.3090508,-0.252538881 23.0583113,0.757616643 L23.0583113,0.757616643 L37.634577,9.17308848 C39.3838376,10.183244 40.4619256,12.0500277 40.4619256,14.0703388 L40.4619256,14.0703388 L40.4619256,30.9012825 C40.4619256,32.9215935 39.3838376,34.7883772 37.634577,35.7985327 L37.634577,35.7985327 L23.0583113,44.2140046 C21.3090508,45.2241601 19.1528748,45.2241601 17.4036142,44.2140046 L17.4036142,44.2140046 L2.82734855,35.7985327 C1.07808797,34.7883772 0,32.9215935 0,30.9012825 L0,30.9012825 L0,14.0703388 C0,12.0500277 1.07808797,10.183244 2.82734855,9.17308848 L2.82734855,9.17308848 Z M20.2309628,8.23222406 C12.3589505,8.23222406 5.97737623,14.6137984 5.97737623,22.4858106 C5.97737623,30.3578229 12.3589505,36.7393972 20.2309628,36.7393972 C28.102975,36.7393972 34.4845493,30.3578229 34.4845493,22.4858106 C34.4845493,14.6137984 28.102975,8.23222406 20.2309628,8.23222406 Z M22.0260098,17.8831154 C22.0260098,17.3260693 22.6285707,16.9782552 23.110891,17.2567782 L23.110891,17.2567782 L31.5209283,22.1119104 C32.0032487,22.3904335 32.0032487,23.0867411 31.5209283,23.3652641 L31.5209283,23.3652641 L23.110891,28.2203963 C22.6285707,28.4989193 22.0260098,28.1511052 22.0260098,27.5940591 L22.0260098,27.5940591 Z M17.7563195,17.2566424 C18.2386399,16.9781193 18.8412007,17.3266128 18.8412007,17.8829796 L18.8412007,17.8829796 L18.8412007,27.5939232 C18.8412007,28.1509693 18.2386399,28.4987834 17.7563195,28.2202604 L17.7563195,28.2202604 L9.34628226,23.3651282 C8.86396187,23.0866052 8.86396187,22.3902976 9.34628226,22.1124539 L9.34628226,22.1124539 Z" id="Combined-Shape" fill="#41B76C"></path>
                </g>
            </g>
        </g>
    </g>
</svg>